<svg width="164" height="87" viewBox="0 0 164 87" fill="none" xmlns="http://www.w3.org/2000/svg">
<path d="M35.1648 70V17.6364H55.2102C58.9943 17.6364 62.1392 18.233 64.6449 19.4261C67.1676 20.6023 69.0511 22.2131 70.2955 24.2585C71.5568 26.304 72.1875 28.6222 72.1875 31.2131C72.1875 33.3438 71.7784 35.1676 70.9602 36.6847C70.142 38.1847 69.0426 39.4034 67.6619 40.3409C66.2812 41.2784 64.7386 41.9517 63.0341 42.3608V42.8722C64.892 42.9744 66.6733 43.5455 68.3778 44.5852C70.0994 45.608 71.5057 47.0568 72.5966 48.9318C73.6875 50.8068 74.233 53.0739 74.233 55.733C74.233 58.4432 73.5767 60.8807 72.2642 63.0455C70.9517 65.1932 68.9744 66.8892 66.3324 68.1335C63.6903 69.3778 60.3665 70 56.3608 70H35.1648ZM44.6506 62.0739H54.8523C58.2955 62.0739 60.7756 61.4176 62.2926 60.1051C63.8267 58.7756 64.5938 57.071 64.5938 54.9915C64.5938 53.4403 64.2102 52.0426 63.4432 50.7983C62.6761 49.5369 61.5852 48.5483 60.1705 47.8324C58.7557 47.0994 57.0682 46.733 55.108 46.733H44.6506V62.0739ZM44.6506 39.9062H54.0341C55.6705 39.9062 57.1449 39.608 58.4574 39.0114C59.7699 38.3977 60.8011 37.5369 61.5511 36.429C62.3182 35.304 62.7017 33.9744 62.7017 32.4403C62.7017 30.4119 61.9858 28.7415 60.554 27.429C59.1392 26.1165 57.0341 25.4602 54.2386 25.4602H44.6506V39.9062ZM78.8851 70V17.6364H98.9305C102.715 17.6364 105.86 18.233 108.365 19.4261C110.888 20.6023 112.771 22.2131 114.016 24.2585C115.277 26.304 115.908 28.6222 115.908 31.2131C115.908 33.3438 115.499 35.1676 114.681 36.6847C113.862 38.1847 112.763 39.4034 111.382 40.3409C110.002 41.2784 108.459 41.9517 106.754 42.3608V42.8722C108.612 42.9744 110.394 43.5455 112.098 44.5852C113.82 45.608 115.226 47.0568 116.317 48.9318C117.408 50.8068 117.953 53.0739 117.953 55.733C117.953 58.4432 117.297 60.8807 115.985 63.0455C114.672 65.1932 112.695 66.8892 110.053 68.1335C107.411 69.3778 104.087 70 100.081 70H78.8851ZM88.3709 62.0739H98.5726C102.016 62.0739 104.496 61.4176 106.013 60.1051C107.547 58.7756 108.314 57.071 108.314 54.9915C108.314 53.4403 107.931 52.0426 107.163 50.7983C106.396 49.5369 105.306 48.5483 103.891 47.8324C102.476 47.0994 100.788 46.733 98.8283 46.733H88.3709V62.0739ZM88.3709 39.9062H97.7544C99.3908 39.9062 100.865 39.608 102.178 39.0114C103.49 38.3977 104.521 37.5369 105.271 36.429C106.038 35.304 106.422 33.9744 106.422 32.4403C106.422 30.4119 105.706 28.7415 104.274 27.429C102.86 26.1165 100.754 25.4602 97.959 25.4602H88.3709V39.9062Z" fill="#18181B"/>
<path d="M0 50.4659V43.375L24.6818 33.0114V40.767L8.38636 46.8523L8.64205 46.4773V47.3807L8.38636 46.9886L24.6818 53.0909V60.8295L0 50.4659Z" fill="#18181B"/>
<path d="M143.358 24.4545L132.108 66.25H125L136.25 24.4545H143.358Z" fill="#18181B"/>
<path d="M163.029 50.4659L138.347 60.8295L140.057 53L154.643 46.9886L154.404 47.3807V46.4773L154.643 46.8523L138.347 40.767V33.0114L163.029 43.375V50.4659Z" fill="#18181B"/>
</svg>
