<svg width="158" height="158" viewBox="0 0 158 158" fill="none" xmlns="http://www.w3.org/2000/svg">
<rect width="158" height="158" rx="79" fill="#18181B"/>
<path d="M41 100V58H57.6437C60.7018 58 63.2525 58.458 65.2957 59.374C67.339 60.29 68.8748 61.5615 69.9032 63.1885C70.9316 64.8018 71.4458 66.6611 71.4458 68.7666C71.4458 70.4072 71.121 71.8496 70.4715 73.0938C69.822 74.3242 68.9289 75.3359 67.7923 76.1289C66.6692 76.9082 65.3837 77.4619 63.9358 77.79V78.2002C65.519 78.2686 67.0007 78.7197 68.3809 79.5537C69.7746 80.3877 70.9045 81.5566 71.7705 83.0605C72.6365 84.5508 73.0696 86.3281 73.0696 88.3926C73.0696 90.6211 72.5215 92.6104 71.4255 94.3604C70.343 96.0967 68.7395 97.4707 66.6151 98.4824C64.4906 99.4941 61.8723 100 58.76 100H41ZM49.7887 92.7402H56.9536C59.4028 92.7402 61.1889 92.2686 62.312 91.3252C63.4352 90.3682 63.9967 89.0967 63.9967 87.5107C63.9967 86.3486 63.7193 85.3232 63.1645 84.4346C62.6097 83.5459 61.8182 82.8486 60.7898 82.3428C59.7749 81.8369 58.5638 81.584 57.1566 81.584H49.7887V92.7402ZM49.7887 75.5752H56.3041C57.5084 75.5752 58.5774 75.3633 59.511 74.9395C60.4582 74.502 61.2025 73.8867 61.7437 73.0938C62.2985 72.3008 62.5759 71.3506 62.5759 70.2432C62.5759 68.7256 62.0414 67.502 60.9724 66.5723C59.917 65.6426 58.415 65.1777 56.4665 65.1777H49.7887V75.5752Z" fill="white"/>
<path d="M75.9304 100V58H92.5741C95.6322 58 98.1829 58.458 100.226 59.374C102.269 60.29 103.805 61.5615 104.834 63.1885C105.862 64.8018 106.376 66.6611 106.376 68.7666C106.376 70.4072 106.051 71.8496 105.402 73.0938C104.752 74.3242 103.859 75.3359 102.723 76.1289C101.6 76.9082 100.314 77.4619 98.8663 77.79V78.2002C100.449 78.2686 101.931 78.7197 103.311 79.5537C104.705 80.3877 105.835 81.5566 106.701 83.0605C107.567 84.5508 108 86.3281 108 88.3926C108 90.6211 107.452 92.6104 106.356 94.3604C105.273 96.0967 103.67 97.4707 101.545 98.4824C99.4211 99.4941 96.8027 100 93.6905 100H75.9304ZM84.7191 92.7402H91.884C94.3332 92.7402 96.1194 92.2686 97.2425 91.3252C98.3656 90.3682 98.9272 89.0967 98.9272 87.5107C98.9272 86.3486 98.6498 85.3232 98.095 84.4346C97.5402 83.5459 96.7486 82.8486 95.7202 82.3428C94.7053 81.8369 93.4943 81.584 92.087 81.584H84.7191V92.7402ZM84.7191 75.5752H91.2345C92.4388 75.5752 93.5078 75.3633 94.4415 74.9395C95.3887 74.502 96.1329 73.8867 96.6742 73.0938C97.229 72.3008 97.5064 71.3506 97.5064 70.2432C97.5064 68.7256 96.9719 67.502 95.9029 66.5723C94.8474 65.6426 93.3454 65.1777 91.3969 65.1777H84.7191V75.5752Z" fill="white"/>
<path d="M6 84.4659V77.375L30.6818 67.0114V74.767L14.3864 80.8523L14.642 80.4773V81.3807L14.3864 80.9886L30.6818 87.0909V94.8295L6 84.4659Z" fill="white"/>
<path d="M131.358 58.4545L120.108 100.25H113L124.25 58.4545H131.358Z" fill="white"/>
<path d="M151.029 84.4659L126.347 94.8295L128.057 87L142.643 80.9886L142.404 81.3807V80.4773L142.643 80.8523L126.347 74.767V67.0114L151.029 77.375V84.4659Z" fill="white"/>
</svg>
