<svg width="200" height="200" viewBox="0 0 200 200" fill="none" xmlns="http://www.w3.org/2000/svg">
<rect width="200" height="200" rx="20" fill="#18181B"/>
<path d="M53.1648 127V74.6364H73.2102C76.9943 74.6364 80.1392 75.233 82.6449 76.4261C85.1676 77.6023 87.0511 79.2131 88.2955 81.2585C89.5568 83.304 90.1875 85.6222 90.1875 88.2131C90.1875 90.3438 89.7784 92.1676 88.9602 93.6847C88.142 95.1847 87.0426 96.4034 85.6619 97.3409C84.2812 98.2784 82.7386 98.9517 81.0341 99.3608V99.8722C82.892 99.9744 84.6733 100.545 86.3778 101.585C88.0994 102.608 89.5057 104.057 90.5966 105.932C91.6875 107.807 92.233 110.074 92.233 112.733C92.233 115.443 91.5767 117.881 90.2642 120.045C88.9517 122.193 86.9744 123.889 84.3324 125.134C81.6903 126.378 78.3665 127 74.3608 127H53.1648ZM62.6506 119.074H72.8523C76.2955 119.074 78.7756 118.418 80.2926 117.105C81.8267 115.776 82.5938 114.071 82.5938 111.991C82.5938 110.44 82.2102 109.043 81.4432 107.798C80.6761 106.537 79.5852 105.548 78.1705 104.832C76.7557 104.099 75.0682 103.733 73.108 103.733H62.6506V119.074ZM62.6506 96.9062H72.0341C73.6705 96.9062 75.1449 96.608 76.4574 96.0114C77.7699 95.3977 78.8011 94.5369 79.5511 93.429C80.3182 92.304 80.7017 90.9744 80.7017 89.4403C80.7017 87.4119 79.9858 85.7415 78.554 84.429C77.1392 83.1165 75.0341 82.4602 72.2386 82.4602H62.6506V96.9062ZM96.8851 127V74.6364H116.931C120.715 74.6364 123.86 75.233 126.365 76.4261C128.888 77.6023 130.771 79.2131 132.016 81.2585C133.277 83.304 133.908 85.6222 133.908 88.2131C133.908 90.3438 133.499 92.1676 132.681 93.6847C131.862 95.1847 130.763 96.4034 129.382 97.3409C128.002 98.2784 126.459 98.9517 124.754 99.3608V99.8722C126.612 99.9744 128.394 100.545 130.098 101.585C131.82 102.608 133.226 104.057 134.317 105.932C135.408 107.807 135.953 110.074 135.953 112.733C135.953 115.443 135.297 117.881 133.985 120.045C132.672 122.193 130.695 123.889 128.053 125.134C125.411 126.378 122.087 127 118.081 127H96.8851ZM106.371 119.074H116.573C120.016 119.074 122.496 118.418 124.013 117.105C125.547 115.776 126.314 114.071 126.314 111.991C126.314 110.44 125.931 109.043 125.163 107.798C124.396 106.537 123.306 105.548 121.891 104.832C120.476 104.099 118.788 103.733 116.828 103.733H106.371V119.074ZM106.371 96.9062H115.754C117.391 96.9062 118.865 96.608 120.178 96.0114C121.49 95.3977 122.521 94.5369 123.271 93.429C124.038 92.304 124.422 90.9744 124.422 89.4403C124.422 87.4119 123.706 85.7415 122.274 84.429C120.86 83.1165 118.754 82.4602 115.959 82.4602H106.371V96.9062Z" fill="white"/>
<path d="M18 107.466V100.375L42.6818 90.0114V97.767L26.3864 103.852L26.642 103.477V104.381L26.3864 103.989L42.6818 110.091V117.83L18 107.466Z" fill="white"/>
<path d="M161.358 81.4545L150.108 123.25H143L154.25 81.4545H161.358Z" fill="white"/>
<path d="M181.029 107.466L156.347 117.83L158.057 110L172.643 103.989L172.404 104.381V103.477L172.643 103.852L156.347 97.767V90.0114L181.029 100.375V107.466Z" fill="white"/>
</svg>
