<svg width="146" height="43" viewBox="0 0 146 43" fill="none" xmlns="http://www.w3.org/2000/svg">
<path d="M35 42V0H51.6437C54.7018 0 57.2525 0.458008 59.2957 1.37402C61.339 2.29004 62.8748 3.56152 63.9032 5.18848C64.9316 6.80176 65.4458 8.66113 65.4458 10.7666C65.4458 12.4072 65.121 13.8496 64.4715 15.0938C63.822 16.3242 62.9289 17.3359 61.7923 18.1289C60.6692 18.9082 59.3837 19.4619 57.9358 19.79V20.2002C59.519 20.2686 61.0007 20.7197 62.3809 21.5537C63.7746 22.3877 64.9045 23.5566 65.7705 25.0605C66.6365 26.5508 67.0696 28.3281 67.0696 30.3926C67.0696 32.6211 66.5215 34.6104 65.4255 36.3604C64.343 38.0967 62.7395 39.4707 60.6151 40.4824C58.4906 41.4941 55.8723 42 52.76 42H35ZM43.7887 34.7402H50.9536C53.4028 34.7402 55.1889 34.2686 56.312 33.3252C57.4352 32.3682 57.9967 31.0967 57.9967 29.5107C57.9967 28.3486 57.7193 27.3232 57.1645 26.4346C56.6097 25.5459 55.8182 24.8486 54.7898 24.3428C53.7749 23.8369 52.5638 23.584 51.1566 23.584H43.7887V34.7402ZM43.7887 17.5752H50.3041C51.5084 17.5752 52.5774 17.3633 53.511 16.9395C54.4582 16.502 55.2025 15.8867 55.7437 15.0938C56.2985 14.3008 56.5759 13.3506 56.5759 12.2432C56.5759 10.7256 56.0414 9.50195 54.9724 8.57227C53.917 7.64258 52.415 7.17773 50.4665 7.17773H43.7887V17.5752Z" fill="white"/>
<path d="M69.9304 42V0H86.5741C89.6322 0 92.1829 0.458008 94.2262 1.37402C96.2694 2.29004 97.8052 3.56152 98.8336 5.18848C99.862 6.80176 100.376 8.66113 100.376 10.7666C100.376 12.4072 100.051 13.8496 99.402 15.0938C98.7525 16.3242 97.8594 17.3359 96.7227 18.1289C95.5996 18.9082 94.3141 19.4619 92.8663 19.79V20.2002C94.4494 20.2686 95.9311 20.7197 97.3114 21.5537C98.7051 22.3877 99.835 23.5566 100.701 25.0605C101.567 26.5508 102 28.3281 102 30.3926C102 32.6211 101.452 34.6104 100.356 36.3604C99.2734 38.0967 97.6699 39.4707 95.5455 40.4824C93.4211 41.4941 90.8027 42 87.6905 42H69.9304ZM78.7191 34.7402H85.884C88.3332 34.7402 90.1194 34.2686 91.2425 33.3252C92.3656 32.3682 92.9272 31.0967 92.9272 29.5107C92.9272 28.3486 92.6498 27.3232 92.095 26.4346C91.5402 25.5459 90.7486 24.8486 89.7202 24.3428C88.7053 23.8369 87.4943 23.584 86.087 23.584H78.7191V34.7402ZM78.7191 17.5752H85.2345C86.4388 17.5752 87.5078 17.3633 88.4415 16.9395C89.3887 16.502 90.1329 15.8867 90.6742 15.0938C91.229 14.3008 91.5064 13.3506 91.5064 12.2432C91.5064 10.7256 90.9719 9.50195 89.9029 8.57227C88.8474 7.64258 87.3454 7.17773 85.3969 7.17773H78.7191V17.5752Z" fill="white"/>
<path d="M0 26.4659V19.375L24.6818 9.01136V16.767L8.38636 22.8523L8.64205 22.4773V23.3807L8.38636 22.9886L24.6818 29.0909V36.8295L0 26.4659Z" fill="white"/>
<path d="M125.358 0.454544L114.108 42.25H107L118.25 0.454544H125.358Z" fill="white"/>
<path d="M145.029 26.4659L120.347 36.8295L122.057 29L136.643 22.9886L136.404 23.3807V22.4773L136.643 22.8523L120.347 16.767V9.01136L145.029 19.375V26.4659Z" fill="white"/>
</svg>
